<svg width="471" height="101" viewBox="0 0 471 101" fill="none" xmlns="http://www.w3.org/2000/svg">
<path d="M34.5808 34.4504C34.5808 40.1986 33.2806 44.7949 30.6802 48.2392C28.1026 51.6608 24.6127 53.3715 20.2103 53.3715C16.8115 53.3715 14.0173 52.1284 11.8275 49.6421V66.9209H0.296875V15.6661H11.0747L11.4169 19.0877C13.6295 16.3504 16.5378 14.9818 20.1418 14.9818C24.7039 14.9818 28.2509 16.6698 30.7828 20.0457C33.3148 23.3988 34.5808 28.0179 34.5808 33.9029V34.4504ZM23.0502 33.7319C23.0502 27.1625 21.1341 23.8778 17.302 23.8778C14.5647 23.8778 12.7399 24.8587 11.8275 26.8203V41.3961C12.8311 43.4491 14.6788 44.4755 17.3704 44.4755C21.0428 44.4755 22.9361 41.3049 23.0502 34.9636V33.7319Z" fill="#E35555"/>
<path d="M60.5503 52.6872C60.1397 51.9345 59.7747 50.8282 59.4554 49.3683C57.334 52.0371 54.3687 53.3715 50.5594 53.3715C47.0694 53.3715 44.1041 52.3223 41.6634 50.2237C39.2227 48.1024 38.0023 45.445 38.0023 42.2515C38.0023 38.2369 39.485 35.2031 42.4503 33.1502C45.4157 31.0973 49.7268 30.0708 55.3838 30.0708H58.9422V28.1205C58.9422 24.7218 57.4709 23.0224 54.5284 23.0224C51.7911 23.0224 50.4225 24.3682 50.4225 27.0599H38.8919C38.8919 23.4786 40.4088 20.5703 43.4426 18.3349C46.4991 16.0995 50.3883 14.9818 55.11 14.9818C59.8318 14.9818 63.5612 16.1337 66.2985 18.4376C69.0357 20.7414 70.4386 23.9006 70.507 27.9152V44.3044C70.5526 47.7032 71.0772 50.3036 72.0809 52.1056V52.6872H60.5503ZM53.3308 45.1598C54.7679 45.1598 55.954 44.8519 56.8892 44.236C57.8473 43.6201 58.5316 42.9244 58.9422 42.1489V36.2296H55.589C51.5744 36.2296 49.5671 38.0316 49.5671 41.6356C49.5671 42.6849 49.9207 43.5403 50.6278 44.2018C51.3349 44.8405 52.2359 45.1598 53.3308 45.1598Z" fill="#E35555"/>
<path d="M90.352 6.46215V15.6661H96.4423V23.6725H90.352V40.6092C90.352 42.0006 90.6029 42.97 91.1047 43.5175C91.6065 44.0649 92.5988 44.3387 94.0814 44.3387C95.222 44.3387 96.18 44.2702 96.9555 44.1334V52.3793C94.8798 53.0408 92.7128 53.3715 90.4546 53.3715C86.4856 53.3715 83.5545 52.4363 81.6612 50.5659C79.768 48.6954 78.8213 45.8555 78.8213 42.0462V23.6725H74.0996V15.6661H78.8213V6.46215H90.352Z" fill="#E35555"/>
<path d="M116.664 44.4755C118.283 44.4755 119.538 44.0421 120.427 43.1753C121.317 42.2857 121.75 41.054 121.728 39.4801H132.54C132.54 43.5403 131.08 46.8706 128.16 49.471C125.263 52.0714 121.522 53.3715 116.937 53.3715C111.554 53.3715 107.311 51.6836 104.209 48.3077C101.107 44.9317 99.5559 40.2556 99.5559 34.2793V33.8003C99.5559 30.0594 100.24 26.7633 101.609 23.912C103 21.0379 104.996 18.8367 107.597 17.3085C110.197 15.7574 113.276 14.9818 116.835 14.9818C121.648 14.9818 125.468 16.3162 128.297 18.985C131.125 21.6538 132.54 25.2692 132.54 29.8313H121.728C121.728 27.9152 121.26 26.444 120.325 25.4175C119.389 24.3911 118.135 23.8778 116.561 23.8778C113.573 23.8778 111.828 25.7825 111.326 29.5918C111.166 30.8007 111.087 32.4659 111.087 34.5873C111.087 38.3053 111.531 40.8829 112.421 42.3199C113.311 43.757 114.725 44.4755 116.664 44.4755Z" fill="#E35555"/>
<path d="M148.689 19.6351C151.153 16.5329 154.301 14.9818 158.133 14.9818C162.216 14.9818 165.295 16.1907 167.371 18.6086C169.447 21.0265 170.507 24.5963 170.553 29.3181V52.6872H158.988V29.5918C158.988 27.6301 158.589 26.1931 157.791 25.2807C156.992 24.3454 155.635 23.8778 153.719 23.8778C151.347 23.8778 149.67 24.6306 148.689 26.136V52.6872H137.159V0.132296H148.689V19.6351Z" fill="#E35555"/>
<path d="M199.499 35.6821H178.936V26.7519H199.499V35.6821Z" fill="#E35555"/>
<path d="M242.884 34.4504C242.884 40.1986 241.584 44.7949 238.984 48.2392C236.406 51.6608 232.916 53.3715 228.514 53.3715C225.115 53.3715 222.321 52.1284 220.131 49.6421V66.9209H208.601V15.6661H219.378L219.721 19.0877C221.933 16.3504 224.842 14.9818 228.446 14.9818C233.008 14.9818 236.555 16.6698 239.087 20.0457C241.618 23.3988 242.884 28.0179 242.884 33.903V34.4504ZM231.354 33.7319C231.354 27.1625 229.438 23.8778 225.606 23.8778C222.868 23.8778 221.044 24.8587 220.131 26.8204V41.3961C221.135 43.4491 222.982 44.4755 225.674 44.4755C229.347 44.4755 231.24 41.3049 231.354 34.9636V33.7319Z" fill="#2AAB85"/>
<path d="M268.854 52.6872C268.443 51.9345 268.078 50.8282 267.759 49.3683C265.638 52.0371 262.672 53.3715 258.863 53.3715C255.373 53.3715 252.408 52.3223 249.967 50.2237C247.526 48.1024 246.306 45.445 246.306 42.2515C246.306 38.2369 247.789 35.2031 250.754 33.1502C253.719 31.0973 258.031 30.0708 263.687 30.0708H267.246V28.1205C267.246 24.7218 265.775 23.0224 262.832 23.0224C260.095 23.0224 258.726 24.3682 258.726 27.0599H247.196C247.196 23.4786 248.713 20.5703 251.746 18.3349C254.803 16.0995 258.692 14.9818 263.414 14.9818C268.135 14.9818 271.865 16.1337 274.602 18.4376C277.339 20.7414 278.742 23.9006 278.811 27.9152V44.3044C278.856 47.7032 279.381 50.3036 280.385 52.1056V52.6872H268.854ZM261.635 45.1598C263.072 45.1598 264.258 44.8519 265.193 44.236C266.151 43.6201 266.835 42.9244 267.246 42.1489V36.2296H263.893C259.878 36.2296 257.871 38.0316 257.871 41.6356C257.871 42.6849 258.224 43.5403 258.932 44.2018C259.639 44.8405 260.54 45.1598 261.635 45.1598Z" fill="#2AAB85"/>
<path d="M300.88 44.4755C302.499 44.4755 303.754 44.0421 304.643 43.1753C305.533 42.2857 305.966 41.054 305.944 39.4801H316.756C316.756 43.5403 315.296 46.8706 312.376 49.471C309.479 52.0714 305.738 53.3715 301.153 53.3715C295.77 53.3715 291.527 51.6836 288.425 48.3077C285.323 44.9317 283.772 40.2556 283.772 34.2793V33.8003C283.772 30.0594 284.456 26.7633 285.825 23.912C287.216 21.0379 289.212 18.8367 291.813 17.3085C294.413 15.7574 297.492 14.9818 301.051 14.9818C305.864 14.9818 309.684 16.3162 312.513 18.985C315.341 21.6538 316.756 25.2693 316.756 29.8313H305.944C305.944 27.9152 305.476 26.444 304.541 25.4175C303.606 24.3911 302.351 23.8778 300.777 23.8778C297.789 23.8778 296.044 25.7825 295.542 29.5918C295.382 30.8008 295.303 32.4659 295.303 34.5873C295.303 38.3053 295.747 40.8829 296.637 42.32C297.527 43.757 298.941 44.4755 300.88 44.4755Z" fill="#2AAB85"/>
<path d="M336.498 38.8984L333.248 42.1489V52.6872H321.717V0.0980797H333.248V28.0179L334.411 26.4782L343.102 15.6661H356.925L343.957 30.892L357.78 52.6872H344.573L336.498 38.8984Z" fill="#2AAB85"/>
<path d="M380.807 52.6872C380.396 51.9345 380.031 50.8282 379.712 49.3683C377.591 52.0371 374.625 53.3715 370.816 53.3715C367.326 53.3715 364.361 52.3223 361.92 50.2237C359.479 48.1024 358.259 45.445 358.259 42.2515C358.259 38.2369 359.742 35.2031 362.707 33.1502C365.672 31.0973 369.983 30.0708 375.64 30.0708H379.199V28.1205C379.199 24.7218 377.728 23.0224 374.785 23.0224C372.048 23.0224 370.679 24.3682 370.679 27.0599H359.149C359.149 23.4786 360.665 20.5703 363.699 18.3349C366.756 16.0995 370.645 14.9818 375.367 14.9818C380.088 14.9818 383.818 16.1337 386.555 18.4376C389.292 20.7414 390.695 23.9006 390.764 27.9152V44.3044C390.809 47.7032 391.334 50.3036 392.338 52.1056V52.6872H380.807ZM373.588 45.1598C375.025 45.1598 376.211 44.8519 377.146 44.236C378.104 43.6201 378.788 42.9244 379.199 42.1489V36.2296H375.846C371.831 36.2296 369.824 38.0316 369.824 41.6356C369.824 42.6849 370.177 43.5403 370.884 44.2018C371.592 44.8405 372.493 45.1598 373.588 45.1598Z" fill="#2AAB85"/>
<path d="M395.828 33.903C395.828 30.1621 396.443 26.8546 397.675 23.9805C398.907 21.1064 400.675 18.8938 402.979 17.3427C405.282 15.7688 407.963 14.9818 411.019 14.9818C414.874 14.9818 417.885 16.282 420.052 18.8824L420.463 15.6661H430.933V51.2844C430.933 54.5463 430.168 57.3748 428.64 59.7698C427.135 62.1877 424.945 64.0354 422.071 65.3127C419.197 66.6129 415.866 67.263 412.08 67.263C409.365 67.263 406.731 66.7498 404.176 65.7233C401.644 64.6969 399.705 63.3625 398.36 61.7201L403.184 54.9455C405.328 57.4774 408.157 58.7434 411.669 58.7434C416.779 58.7434 419.334 56.1202 419.334 50.8738V49.7105C417.121 52.1512 414.327 53.3715 410.951 53.3715C406.434 53.3715 402.785 51.6494 400.002 48.205C397.219 44.7378 395.828 40.1074 395.828 34.3135V33.903ZM407.392 34.6215C407.392 37.6552 407.963 40.0617 409.103 41.8409C410.244 43.5973 411.84 44.4755 413.893 44.4755C416.38 44.4755 418.193 43.6429 419.334 41.9778V26.4098C418.216 24.7218 416.425 23.8778 413.962 23.8778C411.909 23.8778 410.301 24.8016 409.137 26.6493C407.974 28.4741 407.392 31.1315 407.392 34.6215Z" fill="#2AAB85"/>
<path d="M455.397 53.3715C449.717 53.3715 445.121 51.6836 441.608 48.3077C438.095 44.9089 436.339 40.4951 436.339 35.0663V34.1082C436.339 30.3217 437.034 26.98 438.426 24.0831C439.84 21.1862 441.893 18.9508 444.585 17.3769C447.276 15.7802 450.47 14.9818 454.165 14.9818C459.366 14.9818 463.472 16.6013 466.482 19.8404C469.493 23.0567 470.999 27.5503 470.999 33.3213V37.8035H448.075C448.485 39.8792 449.386 41.5102 450.778 42.6963C452.169 43.8825 453.971 44.4755 456.184 44.4755C459.833 44.4755 462.685 43.1981 464.737 40.6434L470.007 46.8706C468.57 48.8551 466.528 50.4404 463.882 51.6266C461.259 52.7899 458.43 53.3715 455.397 53.3715ZM454.096 23.8778C450.721 23.8778 448.713 26.1132 448.075 30.5841H459.708V29.6945C459.753 27.8468 459.286 26.4212 458.305 25.4175C457.324 24.3911 455.921 23.8778 454.096 23.8778Z" fill="#2AAB85"/>
<path d="M12.001 80L0.000976562 80V82H12.001V80Z" fill="#E35555"/>
<path d="M29.0007 80L17.0007 80V82H29.0007V80Z" fill="#E35555"/>
<path d="M46.0007 80L34.0006 80V82H46.0007V80Z" fill="#E35555"/>
<path d="M63.0007 80L51.0006 80V82H63.0007V80Z" fill="#E35555"/>
<path d="M80.0006 80L68.0006 80V82H80.0006V80Z" fill="#E35555"/>
<path d="M97.0006 80L85.0006 80V82H97.0006V80Z" fill="#E35555"/>
<path d="M114.001 80L102.001 80V82H114.001V80Z" fill="#E35555"/>
<path d="M131.001 80L119.001 80V82H131.001V80Z" fill="#E35555"/>
<path d="M148.001 80L136.001 80V82H148.001V80Z" fill="#E35555"/>
<path d="M165.001 80L153.001 80V82H165.001V80Z" fill="#E35555"/>
<path d="M182.001 80L170.001 80V82H182.001V80Z" fill="#E35555"/>
<path d="M199.001 80L187.001 80V82H199.001V80Z" fill="#E35555"/>
<path d="M216.001 80L204.001 80V82H216.001V80Z" fill="#E35555"/>
<path d="M233.001 80L221.001 80V82H233.001V80Z" fill="#E35555"/>
<path d="M250.001 80L238.001 80V82H250.001V80Z" fill="#E35555"/>
<path d="M267.001 80L255.001 80V82H267.001V80Z" fill="#E35555"/>
<path d="M284.001 80L272.001 80V82H284.001V80Z" fill="#E35555"/>
<path d="M301.001 80L289.001 80V82H301.001V80Z" fill="#E35555"/>
<path d="M318.001 80L306.001 80V82H318.001V80Z" fill="#E35555"/>
<path d="M335.001 80L323.001 80V82H335.001V80Z" fill="#E35555"/>
<path d="M352.001 80L340.001 80V82H352.001V80Z" fill="#E35555"/>
<path d="M369.001 80L357.001 80V82H369.001V80Z" fill="#E35555"/>
<path d="M386.001 80L374.001 80V82H386.001V80Z" fill="#E35555"/>
<path d="M403.001 80L391.001 80V82H403.001V80Z" fill="#E35555"/>
<path d="M420.001 80L408.001 80V82H420.001V80Z" fill="#E35555"/>
<path d="M437.001 80L425.001 80V82H437.001V80Z" fill="#E35555"/>
<path d="M454.001 80L442.001 80V82H454.001V80Z" fill="#E35555"/>
<path d="M471.001 80L459.001 80V82H471.001V80Z" fill="#E35555"/>
<path d="M7.03045 94L12 94V96H7L7.03045 101H5V96H0V94L5 94V89L7.03045 89V94Z" fill="#2AAB85"/>
<path d="M24.0305 94L29 94V96H24L24.0305 101H22V96H17V94L22 94V89L24.0305 89V94Z" fill="#2AAB85"/>
<path d="M41.0304 94L46 94V96H41L41.0304 101H39V96H34V94L39 94V89L41.0304 89V94Z" fill="#2AAB85"/>
<path d="M58.0304 94L63 94V96H58L58.0304 101H56V96H51V94L56 94V89L58.0304 89V94Z" fill="#2AAB85"/>
<path d="M75.0304 94L80 94V96H75L75.0304 101H73V96H68V94L73 94V89L75.0304 89V94Z" fill="#2AAB85"/>
<path d="M92.0304 94L97 94V96H92L92.0304 101H90V96H85V94L90 94V89L92.0304 89V94Z" fill="#2AAB85"/>
<path d="M109.03 94L114 94V96H109L109.03 101H107V96H102V94L107 94V89L109.03 89V94Z" fill="#2AAB85"/>
<path d="M126.03 94L131 94V96H126L126.03 101H124V96H119V94L124 94V89L126.03 89V94Z" fill="#2AAB85"/>
<path d="M143.03 94L148 94V96H143L143.03 101H141V96H136V94L141 94V89L143.03 89V94Z" fill="#2AAB85"/>
<path d="M160.03 94L165 94V96H160L160.03 101H158V96H153V94L158 94V89L160.03 89V94Z" fill="#2AAB85"/>
<path d="M177.03 94L182 94V96H177L177.03 101H175V96H170V94L175 94V89L177.03 89V94Z" fill="#2AAB85"/>
<path d="M194.03 94L199 94V96H194L194.03 101H192V96H187V94L192 94V89L194.03 89V94Z" fill="#2AAB85"/>
<path d="M211.03 94L216 94V96H211L211.03 101H209V96H204V94L209 94V89L211.03 89V94Z" fill="#2AAB85"/>
<path d="M228.03 94L233 94V96H228L228.03 101H226V96H221V94L226 94V89L228.03 89V94Z" fill="#2AAB85"/>
<path d="M245.03 94L250 94V96H245L245.03 101H243V96H238V94L243 94V89L245.03 89V94Z" fill="#2AAB85"/>
<path d="M262.03 94L267 94V96H262L262.03 101H260V96H255V94L260 94V89L262.03 89V94Z" fill="#2AAB85"/>
<path d="M279.03 94L284 94V96H279L279.03 101H277V96H272V94L277 94V89L279.03 89V94Z" fill="#2AAB85"/>
<path d="M296.03 94L301 94V96H296L296.03 101H294V96H289V94L294 94V89L296.03 89V94Z" fill="#2AAB85"/>
<path d="M313.03 94L318 94V96H313L313.03 101H311V96H306V94L311 94V89L313.03 89V94Z" fill="#2AAB85"/>
<path d="M330.03 94L335 94V96H330L330.03 101H328V96H323V94L328 94V89L330.03 89V94Z" fill="#2AAB85"/>
<path d="M347.03 94L352 94V96H347L347.03 101H345V96H340V94L345 94V89L347.03 89V94Z" fill="#2AAB85"/>
<path d="M364.03 94L369 94V96H364L364.03 101H362V96H357V94L362 94V89L364.03 89V94Z" fill="#2AAB85"/>
<path d="M381.03 94L386 94V96H381L381.03 101H379V96H374V94L379 94V89L381.03 89V94Z" fill="#2AAB85"/>
<path d="M398.03 94L403 94V96H398L398.03 101H396V96H391V94L396 94V89L398.03 89V94Z" fill="#2AAB85"/>
<path d="M415.03 94L420 94V96H415L415.03 101H413V96H408V94L413 94V89L415.03 89V94Z" fill="#2AAB85"/>
<path d="M432.03 94L437 94V96H432L432.03 101H430V96H425V94L430 94V89L432.03 89V94Z" fill="#2AAB85"/>
<path d="M449.03 94L454 94V96H449L449.03 101H447V96H442V94L447 94V89L449.03 89V94Z" fill="#2AAB85"/>
<path d="M466.03 94L471 94V96H466L466.03 101H464V96H459V94L464 94V89L466.03 89V94Z" fill="#2AAB85"/>
</svg>
