<svg xmlns="http://www.w3.org/2000/svg" xmlns:xlink="http://www.w3.org/1999/xlink" viewBox="0 0 1229.82 300"><defs><clipPath id="a" transform="translate(0 0)"><path d="M280.7,60.9c10.2,17.7,5.1,39.8-11.5,49.3s-38.2,3-48.4-14.7-3.5-37,13.1-46.5S270.5,43.2,280.7,60.9Z" style="fill:none"/></clipPath></defs><title>patch-package-banner</title><rect width="150" height="150" style="fill:#ffdce0"/><rect x="150" y="150" width="1079.82" height="150" style="fill:#e6ffee"/><rect x="150" width="1079.82" height="150" style="fill:#ffeef0"/><rect y="150" width="150" height="150" style="fill:#cdffd8"/><path d="M50.3,71.6H99.8v7.1H50.3Z" transform="translate(0 0)"/><path d="M71.2,228.7H50.3v-7.1H71.2V199.2h7.6v22.4H99.7v7.1H78.8v22.4H71.2Z" transform="translate(0 0)"/><path d="M259.7,46.9a2.33,2.33,0,0,1-3.3-3h0c.8-1.7,1.9-4.8,1.7-6.9a59.59,59.59,0,0,0-8.3-6.2,2.33,2.33,0,1,1,2.4-4,61.5,61.5,0,0,1,9.6,7.3,2.38,2.38,0,0,1,.6,1.1c1.1,4.3-1.6,10-1.9,10.6A1.37,1.37,0,0,1,259.7,46.9Z" transform="translate(0 0)" style="fill:#424242"/><path d="M293.8,65.1a2.17,2.17,0,0,1-2.2,0,26.25,26.25,0,0,0-14.4-2.5,2.28,2.28,0,0,1-.7-4.5,29.63,29.63,0,0,1,17.3,3,2.33,2.33,0,0,1,1,3.1A2.84,2.84,0,0,1,293.8,65.1Z" transform="translate(0 0)" style="fill:#424242"/><path d="M299.6,87.4a2.29,2.29,0,0,1-2.9-.5,19.77,19.77,0,0,0-14.5-7.1,2.3,2.3,0,1,1-.2-4.6A24.28,24.28,0,0,1,300.2,84a2.37,2.37,0,0,1-.3,3.3C299.8,87.3,299.7,87.4,299.6,87.4Z" transform="translate(0 0)" style="fill:#424242"/><path d="M219.3,70.3a2.77,2.77,0,0,1-1.3.3c-.7,0-7-.6-10.2-3.6a2.38,2.38,0,0,1-.6-1.1,54.36,54.36,0,0,1-1.5-12,2.35,2.35,0,1,1,4.7-.1,64.33,64.33,0,0,0,1.2,10.3c1.8,1.2,5.2,1.8,6.8,1.9a2.42,2.42,0,0,1,2.2,2.5A2.77,2.77,0,0,1,219.3,70.3Z" transform="translate(0 0)" style="fill:#424242"/><path d="M217.9,108.9a2.66,2.66,0,0,1-1.2.3,2.21,2.21,0,0,1-2.2-2.4,29.44,29.44,0,0,1,6.1-16.4,2.34,2.34,0,1,1,3.6,3h0c0,.1-4.7,6-5,13.7A2.94,2.94,0,0,1,217.9,108.9Z" transform="translate(0 0)" style="fill:#424242"/><path d="M234.4,125.1c-.1.1-.2.1-.4.2a2.42,2.42,0,0,1-3-1.4,24.27,24.27,0,0,1,1.5-20.1,2.32,2.32,0,1,1,3.9,2.5,19.53,19.53,0,0,0-1.1,16.1A2.1,2.1,0,0,1,234.4,125.1Z" transform="translate(0 0)" style="fill:#424242"/><path d="M280.7,60.9c10.2,17.7,5.1,39.8-11.5,49.3s-38.2,3-48.4-14.7-3.5-37,13.1-46.5S270.5,43.2,280.7,60.9Z" transform="translate(0 0)" style="fill:#ed6c30"/><g style="clip-path:url(#a)"><ellipse cx="248.77" cy="74.89" rx="11.3" ry="9.4" transform="translate(-4.11 134.42) rotate(-30)" style="fill:#424242"/></g><g style="clip-path:url(#a)"><ellipse cx="221.5" cy="81.3" rx="8.9" ry="10.7" transform="translate(-7.27 23.55) rotate(-5.99)" style="fill:#424242"/><ellipse cx="241.18" cy="108.21" rx="7.9" ry="9.5" transform="translate(48.61 289.3) rotate(-67.4)" style="fill:#424242"/><ellipse cx="268.14" cy="54.39" rx="8.9" ry="10.7" transform="translate(66.58 239.4) rotate(-54.01)" style="fill:#424242"/><ellipse cx="281.59" cy="84.87" rx="9.5" ry="7.9" transform="translate(161.14 353.17) rotate(-82.59)" style="fill:#424242"/></g><g style="clip-path:url(#a)"><path d="M271.7,114.4a1.93,1.93,0,0,1-2.6-.7L230.7,47.1a1.9,1.9,0,1,1,3.3-1.9l38.4,66.6A1.93,1.93,0,0,1,271.7,114.4Z" transform="translate(0 0)" style="fill:#424242"/></g><g style="clip-path:url(#a)"><ellipse cx="246.5" cy="93.5" rx="4.4" ry="3.5" transform="translate(-16 69.04) rotate(-15.45)" style="fill:#424242"/><ellipse cx="265.98" cy="82.22" rx="4.4" ry="3.5" transform="translate(18.76 210.24) rotate(-44.55)" style="fill:#424242"/></g><path d="M255.9,43.2c2.9,4.9-4.6,11.7-15,17.7s-20,9.1-22.9,4.2,2.1-16,12.6-22.1S253,38.2,255.9,43.2Z" transform="translate(0 0)" style="fill:#424242"/><path d="M227.7,49.8a2,2,0,0,1-2.3-.3,17.67,17.67,0,0,0-8-4.6,1.94,1.94,0,1,1,.8-3.8,20.93,20.93,0,0,1,10,5.7,2,2,0,0,1,0,2.7A.91.91,0,0,1,227.7,49.8Z" transform="translate(0 0)" style="fill:#424242"/><path d="M237.8,44c-.1.1-.3.1-.5.2a1.94,1.94,0,0,1-2.4-1.4,20.52,20.52,0,0,1,.1-11.5,2,2,0,0,1,2.4-1.2,1.9,1.9,0,0,1,1.2,2.4,17.61,17.61,0,0,0,0,9.3A1.85,1.85,0,0,1,237.8,44Z" transform="translate(0 0)" style="fill:#424242"/><ellipse cx="226.91" cy="56.38" rx="3.3" ry="4" transform="translate(-2.66 100.71) rotate(-24.88)" style="fill:#fff"/><ellipse cx="243.92" cy="46.58" rx="3.3" ry="4" transform="translate(17.6 148.78) rotate(-35.11)" style="fill:#fff"/><path d="M282.5,209.9c-3.8.8-7.1,2.9-8.6,6.6-.9,2.2-2.2,7.9-5.8,6.5-1.7-.7-1.7-3.1-1.5-4.6.4-3.1,1.8-6,2.8-8.9a79.46,79.46,0,0,0,2.4-9.3c2-10.5,1.5-22.6-6-31-1.3-1.4-4.4-4.8-6.5-4.8-1.3,0,0,1.5.3,2a18.3,18.3,0,0,1,1.8,3.4c5.5,14-8.1,24.7-17,33A59,59,0,0,0,233.7,216c-.3.5-1,2.1-1.8,1.7-1-.4-1.1-2.8-1.5-3.6a14.43,14.43,0,0,0-2.8-4.8,11.53,11.53,0,0,0-9.2-4.1c-.1,0-.5.1-1,.2-.7.2-2.7.4-2.2,1.6.3.6,1.1.6,1.7.7,7.5,2.3,7.3,10.1,6.1,16.4-2.2,11.5-8.3,22.3-3.9,34.1,5.1,13.9,21,22.6,35.4,20.2a39.09,39.09,0,0,0,12-3.8,42.32,42.32,0,0,0,10.8-7.9,26.2,26.2,0,0,0,6.9-14.6c.8-6.3-1.2-12.2-3-18.2-2.2-7.2-4.7-18.9,4.4-22.4.4-.2,1.3-.3,1.7-.8C288.6,208.7,283,209.7,282.5,209.9Z" transform="translate(0 0)" style="fill:#ed6c30"/><path d="M255.2,259.1c1.9,1.6,4.6.8,6.4-.5a7.4,7.4,0,0,0,2.3-2.7,4.94,4.94,0,0,0,.5-1.6c0-.7-.4-1.4-.2-2.1,1.5-.3,3.4,4,3.6,5,1.5,7.9-6,14.5-13.2,15.7-12.2,2.1-19.1-8.5-17.7-18,.9-5.9,4.8-9.9,8.8-14,3.3-3.3,6.4-6.2,7.5-10.6a6.1,6.1,0,0,0-.1-2.7,15.19,15.19,0,0,1-.6-2c-.1-1.5,1.4.5,1.7.8,4,4.5,5.1,11.2,4.1,17-.7,3.8-3.4,6.5-4.3,10.1C253.4,255.6,253.4,257.6,255.2,259.1Z" transform="translate(0 0)" style="fill:#fcc21b"/><path d="M383.89,45.42h5.62l-24.93,66.12H359Z" transform="translate(0 0)" style="fill:#6a737d"/><path d="M429.49,45.42h5.62l-24.93,66.12h-5.62Z" transform="translate(0 0)" style="fill:#6a737d"/><path d="M501.08,95.28h-.23l-.53,4.1h-5V45.27h6.23V60l-.23,7.14h.23a18.16,18.16,0,0,1,12.39-5.62c10,0,15.35,7.37,15.35,18.77,0,12.62-7.9,20-16.72,20C509,100.3,504.58,98.39,501.08,95.28Zm21.74-14.9c0-8.13-3-13.6-10.41-13.6-3.27,0-7.07,1.75-10.87,5.55V90.72a15.93,15.93,0,0,0,10,4.33C518,95.05,522.82,89.5,522.82,80.38Z" transform="translate(0 0)" style="fill:#6a737d"/><path d="M544.93,62.45h5.17l.53,8.74h.23c3.88-5.93,9.65-9.65,16.49-9.65a15.53,15.53,0,0,1,7.3,1.52l-1.44,5.4a17.13,17.13,0,0,0-6.84-1.29c-5.55,0-10.79,2.89-15.2,10.56V99.38h-6.23Z" transform="translate(0 0)" style="fill:#6a737d"/><path d="M584,81c0-12.39,8.51-19.46,18.24-19.46S620.48,68.6,620.48,81c0,12.24-8.51,19.31-18.24,19.31S584,93.23,584,81Zm30,0c0-8.51-4.71-14.29-11.78-14.29S590.45,72.48,590.45,81s4.71,14.14,11.78,14.14S614,89.43,614,81Z" transform="translate(0 0)" style="fill:#6a737d"/><path d="M633.09,45.27h6.23V81.9h.3l19.91-19.46h7.14L651.94,77l16.72,22.42h-7l-13.6-18.62-8.74,8.59v10h-6.23Z" transform="translate(0 0)" style="fill:#6a737d"/><path d="M675.8,80.84c0-12,9-19.31,18.85-19.31,10.64,0,16.87,6.92,16.87,17.33a25.58,25.58,0,0,1-.3,3.8H682.11c.76,8.36,6.69,12.62,14.37,12.62a20.12,20.12,0,0,0,11.25-3.5l2.28,4.1a25.31,25.31,0,0,1-14.29,4.41C684.62,100.3,675.8,93.15,675.8,80.84Zm6.46-3h23.56c-.53-7.6-4.71-11.32-11-11.32C688.72,66.47,683.4,70.5,682.26,77.8Z" transform="translate(0 0)" style="fill:#6a737d"/><path d="M723.3,62.45h5.17l.53,6.31h.3c3.88-4.1,8.13-7.22,13.91-7.22C752,61.53,756,66.7,756,76.43v23h-6.23V77.27c0-7-2.43-10.34-8.51-10.34-4.41,0-7.37,2.2-11.7,6.69V99.38H723.3Z" transform="translate(0 0)" style="fill:#6a737d"/><path d="M814.5,62.45h5.17l.53,4.71h.23c3.42-3.27,8.21-5.62,12.77-5.62,10,0,15.28,7.37,15.28,18.85,0,12.54-7.9,19.91-16.8,19.91a17.36,17.36,0,0,1-11-4.79h-.23l.3,7V115H814.5ZM842,80.38c0-8.13-3-13.6-10.41-13.6-3.27,0-7.07,1.75-10.87,5.55V90.72a15.92,15.92,0,0,0,9.88,4.33C837.22,95.05,842,89.5,842,80.38Z" transform="translate(0 0)" style="fill:#6a737d"/><path d="M859.19,89.81c0-8.28,7.68-12.31,26.75-13.83-.15-5-2.66-9.27-9.8-9.27-4.79,0-9.5,2.28-12.92,4.41l-2.43-4.26c3.72-2.43,10-5.32,16.42-5.32,10.11,0,15,6,15,15.2V99.38h-5.09l-.53-5h-.23c-4.1,3.19-9.35,5.93-14.59,5.93C864.81,100.3,859.19,96.42,859.19,89.81Zm26.75,0V80.08c-15.81,1.29-20.67,4.41-20.67,9.27,0,4.18,3.88,5.93,8.13,5.93S881.76,93.3,885.94,89.81Z" transform="translate(0 0)" style="fill:#6a737d"/><path d="M904.71,81c0-12.39,9.42-19.46,20.6-19.46a18.77,18.77,0,0,1,13.45,5.4l-3.12,4c-3-2.66-6.23-4.26-10.11-4.26-8.51,0-14.36,5.78-14.36,14.29s5.7,14.14,14.21,14.14a17.56,17.56,0,0,0,11.4-4.64l2.81,4a22,22,0,0,1-14.67,5.78C913.37,100.3,904.71,93.23,904.71,81Z" transform="translate(0 0)" style="fill:#6a737d"/><path d="M952.29,45.27h6.23V81.9h.3l19.91-19.46h7.14L971.13,77l16.72,22.42h-7l-13.6-18.62-8.74,8.59v10h-6.23Z" transform="translate(0 0)" style="fill:#6a737d"/><path d="M996,89.81c0-8.28,7.68-12.31,26.75-13.83-.15-5-2.66-9.27-9.8-9.27-4.79,0-9.5,2.28-12.92,4.41l-2.43-4.26c3.72-2.43,10-5.32,16.42-5.32,10.11,0,15,6,15,15.2V99.38h-5.09l-.53-5h-.23c-4.1,3.19-9.35,5.93-14.59,5.93C1001.61,100.3,996,96.42,996,89.81Zm26.75,0V80.08c-15.81,1.29-20.67,4.41-20.67,9.27,0,4.18,3.88,5.93,8.13,5.93S1018.56,93.3,1022.74,89.81Z" transform="translate(0 0)" style="fill:#6a737d"/><path d="M1040.9,106.15c0-3,2.13-5.93,6.08-8.21v-.3a6.69,6.69,0,0,1-3.8-6.08c0-2.36,1.6-5,4.41-6.92v-.3a11.77,11.77,0,0,1-4.56-9.58c0-8.06,6.69-13.22,14.52-13.22a15,15,0,0,1,5.47.91h15.28v5.09h-9.58a11.16,11.16,0,0,1,3.12,7.45c0,7.9-6.31,12.69-14.29,12.69a16,16,0,0,1-6.23-1.37c-1.82,1.14-2.89,2.51-2.89,4.26,0,2.89,2.81,4.26,7.68,4.26h8.29c9.5,0,14.06,2.43,14.06,8.66,0,6.92-8,12.92-20.52,12.92C1047.13,116.41,1040.9,112.68,1040.9,106.15Zm31.39-1.67c0-3.5-2.81-4.48-8.44-4.48h-7.22a20.9,20.9,0,0,1-5.62-.61c-3.5,1.9-4.71,4-4.71,6.16,0,3.88,4.18,6.31,12.08,6.31C1067,111.85,1072.29,108.28,1072.29,104.48Zm-6.23-29.72a8.52,8.52,0,1,0-8.51,8.74A8.35,8.35,0,0,0,1066.06,74.76Z" transform="translate(0 0)" style="fill:#6a737d"/><path d="M1086.19,80.84c0-12,9-19.31,18.85-19.31,10.64,0,16.87,6.92,16.87,17.33a25.58,25.58,0,0,1-.3,3.8H1092.5c.76,8.36,6.69,12.62,14.37,12.62a20.12,20.12,0,0,0,11.25-3.5l2.28,4.1a25.31,25.31,0,0,1-14.29,4.41C1095,100.3,1086.19,93.15,1086.19,80.84Zm6.46-3h23.56c-.53-7.6-4.71-11.32-11-11.32C1099.12,66.47,1093.79,70.5,1092.66,77.8Z" transform="translate(0 0)" style="fill:#6a737d"/><path d="M1156.88,60.09c0-4.18-2.81-7.37-8.36-7.37a13.72,13.72,0,0,0-9.88,4.41l-3.72-3.42a19.09,19.09,0,0,1,14-6.16c8.44,0,14.14,4.64,14.14,11.86,0,10.34-13.83,12.46-12.46,22.35H1145C1143.2,70.88,1156.88,67.84,1156.88,60.09Zm-14.06,34.28a5.55,5.55,0,1,1,11.1,0c0,3.65-2.51,5.93-5.55,5.93S1142.81,98,1142.81,94.37Z" transform="translate(0 0)" style="fill:#6a737d"/><path d="M383.89,197.14h5.62l-24.93,66.12H359Z" transform="translate(0 0)" style="fill:#6a737d"/><path d="M429.49,197.14h5.62l-24.93,66.12h-5.62Z" transform="translate(0 0)" style="fill:#6a737d"/><path d="M495.3,214.16h5.17l.53,4.71h.23c3.42-3.27,8.21-5.62,12.77-5.62,10,0,15.28,7.37,15.28,18.85,0,12.54-7.9,19.91-16.8,19.91a17.36,17.36,0,0,1-11-4.79h-.23l.3,7v12.46H495.3Zm27.51,17.94c0-8.13-3-13.6-10.41-13.6-3.27,0-7.07,1.75-10.87,5.55v18.39a15.91,15.91,0,0,0,9.88,4.33C518,246.77,522.82,241.22,522.82,232.1Z" transform="translate(0 0)" style="fill:#6a737d"/><path d="M540,241.52c0-8.28,7.68-12.31,26.75-13.83-.15-5-2.66-9.27-9.8-9.27-4.79,0-9.5,2.28-12.92,4.41l-2.43-4.26c3.72-2.43,10-5.32,16.42-5.32,10.11,0,15,6,15,15.2V251.1h-5.09l-.53-5h-.23c-4.1,3.19-9.35,5.93-14.59,5.93C545.62,252,540,248.14,540,241.52Zm26.75,0V231.8c-15.81,1.29-20.67,4.41-20.67,9.27,0,4.18,3.88,5.93,8.13,5.93S562.56,245,566.75,241.52Z" transform="translate(0 0)" style="fill:#6a737d"/><path d="M595.09,236.74V219.25H584.68v-4.71l10.64-.38.84-11.86h5.17v11.86h18.17v5.09H601.32v17.56c0,6.61,2.21,10.11,9.35,10.11a24.39,24.39,0,0,0,8.89-1.67l1.37,4.56a32.23,32.23,0,0,1-11.55,2.2C598.59,252,595.09,245.86,595.09,236.74Z" transform="translate(0 0)" style="fill:#6a737d"/><path d="M631.11,232.71c0-12.39,9.42-19.46,20.6-19.46a18.77,18.77,0,0,1,13.45,5.4l-3.12,4c-3-2.66-6.23-4.26-10.11-4.26-8.51,0-14.36,5.78-14.36,14.29s5.7,14.14,14.21,14.14a17.56,17.56,0,0,0,11.4-4.64l2.81,4A22,22,0,0,1,651.33,252C639.78,252,631.11,244.94,631.11,232.71Z" transform="translate(0 0)" style="fill:#6a737d"/><path d="M677.7,197h6.23v14.74l-.38,8.74h.23c3.8-4.1,8.06-7.22,13.83-7.22,8.74,0,12.77,5.17,12.77,14.9v23h-6.23V229c0-7-2.43-10.34-8.51-10.34-4.41,0-7.37,2.2-11.7,6.69V251.1H677.7Z" transform="translate(0 0)" style="fill:#6a737d"/><path d="M722.69,223.66h32.68v4.71H722.69Z" transform="translate(0 0)" style="fill:#6a737d"/><path d="M768.9,214.16h5.17l.53,4.71h.23c3.42-3.27,8.21-5.62,12.77-5.62,10,0,15.28,7.37,15.28,18.85,0,12.54-7.9,19.91-16.8,19.91a17.36,17.36,0,0,1-11-4.79h-.23l.3,7v12.46H768.9Zm27.51,17.94c0-8.13-3-13.6-10.41-13.6-3.27,0-7.07,1.75-10.87,5.55v18.39a15.91,15.91,0,0,0,9.88,4.33C791.63,246.77,796.41,241.22,796.41,232.1Z" transform="translate(0 0)" style="fill:#6a737d"/><path d="M813.59,241.52c0-8.28,7.68-12.31,26.75-13.83-.15-5-2.66-9.27-9.8-9.27-4.79,0-9.5,2.28-12.92,4.41l-2.43-4.26c3.72-2.43,10-5.32,16.42-5.32,10.11,0,15,6,15,15.2V251.1h-5.09l-.53-5h-.23c-4.1,3.19-9.35,5.93-14.59,5.93C819.21,252,813.59,248.14,813.59,241.52Zm26.75,0V231.8c-15.81,1.29-20.67,4.41-20.67,9.27,0,4.18,3.88,5.93,8.13,5.93S836.16,245,840.34,241.52Z" transform="translate(0 0)" style="fill:#6a737d"/><path d="M859.11,232.71c0-12.39,9.42-19.46,20.6-19.46a18.77,18.77,0,0,1,13.45,5.4l-3.12,4c-3-2.66-6.23-4.26-10.11-4.26-8.51,0-14.36,5.78-14.36,14.29s5.7,14.14,14.21,14.14a17.56,17.56,0,0,0,11.4-4.64l2.81,4A22,22,0,0,1,879.33,252C867.78,252,859.11,244.94,859.11,232.71Z" transform="translate(0 0)" style="fill:#6a737d"/><path d="M906.69,197h6.23v36.63h.3l19.91-19.46h7.14l-14.75,14.52,16.72,22.42h-7l-13.6-18.62-8.74,8.59v10h-6.23Z" transform="translate(0 0)" style="fill:#6a737d"/><path d="M950.38,241.52c0-8.28,7.68-12.31,26.75-13.83-.15-5-2.66-9.27-9.8-9.27-4.79,0-9.5,2.28-12.92,4.41L952,218.57c3.72-2.43,10-5.32,16.42-5.32,10.11,0,15,6,15,15.2V251.1h-5.09l-.53-5h-.23c-4.1,3.19-9.35,5.93-14.59,5.93C956,252,950.38,248.14,950.38,241.52Zm26.75,0V231.8c-15.81,1.29-20.67,4.41-20.67,9.27,0,4.18,3.88,5.93,8.13,5.93S973,245,977.14,241.52Z" transform="translate(0 0)" style="fill:#6a737d"/><path d="M995.3,257.86c0-3,2.13-5.93,6.08-8.21v-.3a6.69,6.69,0,0,1-3.8-6.08c0-2.36,1.6-5,4.41-6.92v-.3a11.77,11.77,0,0,1-4.56-9.58c0-8.06,6.69-13.22,14.52-13.22a15,15,0,0,1,5.47.91h15.28v5.09h-9.58a11.16,11.16,0,0,1,3.12,7.45c0,7.91-6.31,12.69-14.29,12.69a16,16,0,0,1-6.23-1.37c-1.82,1.14-2.89,2.51-2.89,4.26,0,2.89,2.81,4.26,7.68,4.26h8.29c9.5,0,14.06,2.43,14.06,8.66,0,6.92-8,12.92-20.52,12.92C1001.53,268.13,995.3,264.4,995.3,257.86Zm31.39-1.67c0-3.5-2.81-4.48-8.44-4.48H1011a20.9,20.9,0,0,1-5.62-.61c-3.5,1.9-4.71,4-4.71,6.16,0,3.88,4.18,6.31,12.08,6.31C1021.37,263.56,1026.69,260,1026.69,256.19Zm-6.23-29.72a8.52,8.52,0,1,0-8.51,8.74A8.35,8.35,0,0,0,1020.46,226.47Z" transform="translate(0 0)" style="fill:#6a737d"/><path d="M1040.59,232.56c0-12,9-19.3,18.85-19.3,10.64,0,16.87,6.92,16.87,17.33a25.57,25.57,0,0,1-.3,3.8H1046.9c.76,8.36,6.69,12.62,14.37,12.62a20.12,20.12,0,0,0,11.25-3.5l2.28,4.1a25.31,25.31,0,0,1-14.29,4.41C1049.41,252,1040.59,244.87,1040.59,232.56Zm6.46-3h23.56c-.53-7.6-4.71-11.32-11-11.32C1053.52,218.19,1048.2,222.22,1047.06,229.52Z" transform="translate(0 0)" style="fill:#6a737d"/><path d="M1098.28,246.08a5.55,5.55,0,1,1,11.1,0c0,3.65-2.51,5.93-5.55,5.93S1098.28,249.73,1098.28,246.08Zm2.66-38.76-.15-7.14h6.08l-.15,7.14-.76,26.15h-4.26Z" transform="translate(0 0)" style="fill:#6a737d"/></svg>