<?xml version="1.0" encoding="utf-8"?>
<!-- Generator: Adobe Illustrator 21.1.0, SVG Export Plug-In . SVG Version: 6.00 Build 0)  -->
<svg version="1.1" id="Layer_1" xmlns="http://www.w3.org/2000/svg" xmlns:xlink="http://www.w3.org/1999/xlink" x="0px" y="0px"
	 viewBox="0 0 300 300" style="enable-background:new 0 0 300 300;" xml:space="preserve">
<style type="text/css">
	.st0{fill:#FFDCE0;}
	.st1{fill:#E6FFEE;}
	.st2{fill:#FFEEF0;}
	.st3{fill:#CDFFD8;}
	.st4{fill:#424242;}
	.st5{fill:#ED6C30;}
	.st6{clip-path:url(#SVGID_2_);}
	.st7{clip-path:url(#SVGID_5_);}
	.st8{clip-path:url(#SVGID_7_);}
	.st9{clip-path:url(#SVGID_9_);}
	.st10{fill:#FFFFFF;}
	.st11{fill:#FCC21B;}
</style>
<rect class="st0" width="150" height="150"/>
<rect x="150" y="150" class="st1" width="150" height="150"/>
<rect x="150" class="st2" width="150" height="150"/>
<rect y="150" class="st3" width="150" height="150"/>
<g>
	<path d="M50.3,71.6h49.5v7.1H50.3V71.6z"/>
</g>
<g>
	<path d="M71.2,228.7H50.3v-7.1h20.9v-22.4h7.6v22.4h20.9v7.1H78.8v22.4h-7.6V228.7z"/>
</g>
<g>
	<g>
		<g>
			<path class="st4" d="M234.7,46.9c-0.6,0.4-1.5,0.4-2.2,0.1c-1.1-0.6-1.6-1.9-1.1-3.1l0,0c0.8-1.7,1.9-4.8,1.7-6.9
				c-1.2-1.1-4.4-3.8-8.3-6.2c-1.1-0.7-1.4-2.1-0.8-3.2c0.7-1.1,2.1-1.4,3.2-0.8c5.4,3.3,9.4,7.1,9.6,7.3c0.3,0.3,0.5,0.7,0.6,1.1
				c1.1,4.3-1.6,10-1.9,10.6C235.4,46.4,235.1,46.7,234.7,46.9z"/>
			<path class="st4" d="M268.8,65.1c-0.7,0.4-1.5,0.4-2.2,0c-6.9-3.6-14.3-2.5-14.4-2.5c-1.3,0.2-2.4-0.7-2.6-1.9
				c-0.2-1.3,0.7-2.4,1.9-2.6c0.4-0.1,9-1.4,17.3,3c1.1,0.6,1.6,2,1,3.1C269.5,64.6,269.2,64.9,268.8,65.1z"/>
			<path class="st4" d="M274.6,87.4c-1,0.5-2.2,0.4-2.9-0.5c-6.2-7.3-14.4-7.1-14.5-7.1c-1.3,0-2.3-1-2.4-2.2c0-1.3,1-2.3,2.2-2.4
				c0.4,0,10.5-0.3,18.2,8.8c0.8,1,0.7,2.4-0.3,3.3C274.8,87.3,274.7,87.4,274.6,87.4z"/>
		</g>
		<g>
			<path class="st4" d="M194.3,70.3c-0.4,0.2-0.8,0.3-1.3,0.3c-0.7,0-7-0.6-10.2-3.6c-0.3-0.3-0.5-0.7-0.6-1.1
				c-0.1-0.2-1.4-5.6-1.5-12c0-1.3,1-2.3,2.3-2.4c1.3,0,2.3,1,2.4,2.3c0.1,4.5,0.9,8.7,1.2,10.3c1.8,1.2,5.2,1.8,6.8,1.9
				c1.3,0.1,2.2,1.2,2.2,2.5C195.4,69.3,194.9,70,194.3,70.3z"/>
			<path class="st4" d="M192.9,108.9c-0.4,0.2-0.8,0.3-1.2,0.3c-1.3,0-2.3-1.1-2.2-2.4c0.4-9.3,5.8-16.2,6.1-16.4
				c0.8-1,2.3-1.1,3.3-0.3c1,0.8,1.1,2.3,0.3,3.3l0,0c0,0.1-4.7,6-5,13.7C194,107.8,193.6,108.5,192.9,108.9z"/>
			<path class="st4" d="M209.4,125.1c-0.1,0.1-0.2,0.1-0.4,0.2c-1.2,0.4-2.5-0.2-3-1.4c-4-11.1,1.3-19.8,1.5-20.1
				c0.7-1.1,2.1-1.4,3.2-0.7c1.1,0.7,1.4,2.1,0.7,3.2c-0.2,0.3-4.3,7.2-1.1,16.1C210.8,123.4,210.3,124.6,209.4,125.1z"/>
		</g>
	</g>
	<g>
		<g>
			<path id="SVGID_3_" class="st5" d="M255.7,60.9c10.2,17.7,5.1,39.8-11.5,49.3s-38.2,3-48.4-14.7c-10.2-17.7-3.5-37,13.1-46.5
				S245.5,43.2,255.7,60.9z"/>
		</g>
		<g>
			<defs>
				<path id="SVGID_1_" d="M255.7,60.9c10.2,17.7,5.1,39.8-11.5,49.3s-38.2,3-48.4-14.7c-10.2-17.7-3.5-37,13.1-46.5
					S245.5,43.2,255.7,60.9z"/>
			</defs>
			<clipPath id="SVGID_2_">
				<use xlink:href="#SVGID_1_"  style="overflow:visible;"/>
			</clipPath>
			<g class="st6">
				<ellipse transform="matrix(0.866 -0.5 0.5 0.866 -7.4896 121.9217)" class="st4" cx="223.8" cy="74.9" rx="11.3" ry="9.4"/>
			</g>
		</g>
		<g>
			<defs>
				<path id="SVGID_4_" d="M255.7,60.9c10.2,17.7,5.1,39.8-11.5,49.3s-38.2,3-48.4-14.7c-10.2-17.7-3.5-37,13.1-46.5
					S245.5,43.2,255.7,60.9z"/>
			</defs>
			<clipPath id="SVGID_5_">
				<use xlink:href="#SVGID_4_"  style="overflow:visible;"/>
			</clipPath>
			<g class="st7">
				<g>
					
						<ellipse transform="matrix(0.9945 -0.1043 0.1043 0.9945 -7.4053 20.9376)" class="st4" cx="196.5" cy="81.3" rx="8.9" ry="10.7"/>
					
						<ellipse transform="matrix(0.3842 -0.9232 0.9232 0.3842 33.2247 266.2362)" class="st4" cx="216.2" cy="108.2" rx="7.9" ry="9.5"/>
				</g>
				<g>
					
						<ellipse transform="matrix(0.5876 -0.8092 0.8092 0.5876 56.2682 219.1388)" class="st4" cx="243.1" cy="54.4" rx="8.9" ry="10.7"/>
					
						<ellipse transform="matrix(0.1289 -0.9917 0.9917 0.1289 139.3173 328.3925)" class="st4" cx="256.6" cy="84.9" rx="9.5" ry="7.9"/>
				</g>
			</g>
		</g>
		<g>
			<defs>
				<path id="SVGID_6_" d="M255.7,60.9c10.2,17.7,5.1,39.8-11.5,49.3s-38.2,3-48.4-14.7c-10.2-17.7-3.5-37,13.1-46.5
					S245.5,43.2,255.7,60.9z"/>
			</defs>
			<clipPath id="SVGID_7_">
				<use xlink:href="#SVGID_6_"  style="overflow:visible;"/>
			</clipPath>
			<g class="st8">
				<path class="st4" d="M246.7,114.4c-0.9,0.5-2.1,0.2-2.6-0.7l-38.4-66.6c-0.5-0.9-0.2-2.1,0.7-2.6c0.9-0.5,2.1-0.2,2.6,0.7
					l38.4,66.6C247.9,112.7,247.6,113.9,246.7,114.4z"/>
			</g>
		</g>
		<g>
			<defs>
				<path id="SVGID_8_" d="M255.7,60.9c10.2,17.7,5.1,39.8-11.5,49.3s-38.2,3-48.4-14.7c-10.2-17.7-3.5-37,13.1-46.5
					S245.5,43.2,255.7,60.9z"/>
			</defs>
			<clipPath id="SVGID_9_">
				<use xlink:href="#SVGID_8_"  style="overflow:visible;"/>
			</clipPath>
			<g class="st9">
				
					<ellipse transform="matrix(0.9639 -0.2664 0.2664 0.9639 -16.9123 62.3784)" class="st4" cx="221.5" cy="93.5" rx="4.4" ry="3.5"/>
				
					<ellipse transform="matrix(0.7126 -0.7016 0.7016 0.7126 11.5653 192.7306)" class="st4" cx="241" cy="82.2" rx="4.4" ry="3.5"/>
			</g>
		</g>
	</g>
	<path class="st4" d="M230.9,43.2c2.9,4.9-4.6,11.7-15,17.7c-10.5,6-20,9.1-22.9,4.2s2.1-16,12.6-22.1S228,38.2,230.9,43.2z"/>
	<g>
		<path class="st4" d="M202.7,49.8c-0.7,0.4-1.7,0.3-2.3-0.3c-3.7-3.7-8-4.6-8-4.6c-1-0.2-1.7-1.2-1.5-2.3c0.2-1,1.2-1.7,2.3-1.5
			c0.2,0,5.4,1.1,10,5.7c0.7,0.8,0.7,2,0,2.7C203,49.7,202.8,49.8,202.7,49.8z"/>
		<path class="st4" d="M212.8,44c-0.1,0.1-0.3,0.1-0.5,0.2c-1,0.3-2.1-0.3-2.4-1.4c-1.7-6.3,0-11.3,0.1-11.5c0.4-1,1.4-1.5,2.4-1.2
			c1,0.3,1.5,1.4,1.2,2.4c0,0.1-1.4,4.2,0,9.3C213.9,42.7,213.5,43.6,212.8,44z"/>
	</g>
	<g>
		<ellipse transform="matrix(0.9072 -0.4208 0.4208 0.9072 -4.9891 90.1749)" class="st10" cx="201.9" cy="56.4" rx="3.3" ry="4"/>
		<ellipse transform="matrix(0.818 -0.5752 0.5752 0.818 13.0484 134.3712)" class="st10" cx="218.9" cy="46.6" rx="3.3" ry="4"/>
	</g>
</g>
<g>
	<path class="st5" d="M257.5,209.9c-3.8,0.8-7.1,2.9-8.6,6.6c-0.9,2.2-2.2,7.9-5.8,6.5c-1.7-0.7-1.7-3.1-1.5-4.6
		c0.4-3.1,1.8-6,2.8-8.9c1-3.1,1.8-6.2,2.4-9.3c2-10.5,1.5-22.6-6-31c-1.3-1.4-4.4-4.8-6.5-4.8c-1.3,0,0,1.5,0.3,2
		c0.7,1,1.3,2.2,1.8,3.4c5.5,14-8.1,24.7-17,33c-4.3,4-7.7,8.2-10.7,13.2c-0.3,0.5-1,2.1-1.8,1.7c-1-0.4-1.1-2.8-1.5-3.6
		c-0.6-1.7-1.6-3.5-2.8-4.8c-2.3-2.6-5.6-4.3-9.2-4.1c-0.1,0-0.5,0.1-1,0.2c-0.7,0.2-2.7,0.4-2.2,1.6c0.3,0.6,1.1,0.6,1.7,0.7
		c7.5,2.3,7.3,10.1,6.1,16.4c-2.2,11.5-8.3,22.3-3.9,34.1c5.1,13.9,21,22.6,35.4,20.2c3.9-0.6,8.5-1.9,12-3.8
		c3.8-2,7.9-4.8,10.8-7.9c3.8-4,6.2-9.2,6.9-14.6c0.8-6.3-1.2-12.2-3-18.2c-2.2-7.2-4.7-18.9,4.4-22.4c0.4-0.2,1.3-0.3,1.7-0.8
		C263.6,208.7,258,209.7,257.5,209.9z"/>
	<path class="st11" d="M230.2,259.1c1.9,1.6,4.6,0.8,6.4-0.5c1-0.7,1.8-1.7,2.3-2.7c0.2-0.5,0.5-1.1,0.5-1.6c0-0.7-0.4-1.4-0.2-2.1
		c1.5-0.3,3.4,4,3.6,5c1.5,7.9-6,14.5-13.2,15.7c-12.2,2.1-19.1-8.5-17.7-18c0.9-5.9,4.8-9.9,8.8-14c3.3-3.3,6.4-6.2,7.5-10.6
		c0.2-0.8,0.1-2-0.1-2.7c-0.2-0.7-0.5-1.3-0.6-2c-0.1-1.5,1.4,0.5,1.7,0.8c4,4.5,5.1,11.2,4.1,17c-0.7,3.8-3.4,6.5-4.3,10.1
		C228.4,255.6,228.4,257.6,230.2,259.1z"/>
</g>
</svg>
