<svg width="490" height="225" viewBox="0 0 490 225" fill="none" xmlns="http://www.w3.org/2000/svg">
<rect width="490" height="225" fill="white"/>
<path d="M43.5808 105.352C43.5808 111.101 42.2806 115.697 39.6802 119.141C37.1026 122.563 33.6127 124.273 29.2103 124.273C25.8115 124.273 23.0173 123.03 20.8275 120.544V137.823H9.29688V86.568H20.0747L20.4169 89.9896C22.6295 87.2523 25.5378 85.8837 29.1418 85.8837C33.7039 85.8837 37.2509 87.5717 39.7828 90.9476C42.3148 94.3007 43.5808 98.9198 43.5808 104.805V105.352ZM32.0502 104.634C32.0502 98.0644 30.1341 94.7797 26.302 94.7797C23.5647 94.7797 21.7399 95.7606 20.8275 97.7223V112.298C21.8311 114.351 23.6788 115.377 26.3704 115.377C30.0428 115.377 31.9361 112.207 32.0502 105.866V104.634Z" fill="#E35555"/>
<path d="M69.5503 123.589C69.1397 122.836 68.7747 121.73 68.4554 120.27C66.334 122.939 63.3687 124.273 59.5594 124.273C56.0694 124.273 53.1041 123.224 50.6634 121.126C48.2227 119.004 47.0023 116.347 47.0023 113.153C47.0023 109.139 48.485 106.105 51.4503 104.052C54.4157 101.999 58.7268 100.973 64.3838 100.973H67.9422V99.0225C67.9422 95.6237 66.4709 93.9244 63.5284 93.9244C60.7911 93.9244 59.4225 95.2702 59.4225 97.9618H47.8919C47.8919 94.3806 49.4088 91.4722 52.4426 89.2368C55.4991 87.0014 59.3883 85.8837 64.11 85.8837C68.8318 85.8837 72.5612 87.0356 75.2985 89.3395C78.0357 91.6433 79.4386 94.8025 79.507 98.8172V115.206C79.5526 118.605 80.0772 121.205 81.0809 123.007V123.589H69.5503ZM62.3308 116.062C63.7679 116.062 64.954 115.754 65.8892 115.138C66.8473 114.522 67.5316 113.826 67.9422 113.051V107.132H64.589C60.5744 107.132 58.5671 108.934 58.5671 112.538C58.5671 113.587 58.9207 114.442 59.6278 115.104C60.3349 115.742 61.2359 116.062 62.3308 116.062Z" fill="#E35555"/>
<path d="M99.352 77.3641V86.568H105.442V94.5744H99.352V111.511C99.352 112.903 99.6029 113.872 100.105 114.419C100.607 114.967 101.599 115.241 103.081 115.241C104.222 115.241 105.18 115.172 105.956 115.035V123.281C103.88 123.943 101.713 124.273 99.4546 124.273C95.4856 124.273 92.5545 123.338 90.6612 121.468C88.768 119.597 87.8213 116.757 87.8213 112.948V94.5744H83.0996V86.568H87.8213V77.3641H99.352Z" fill="#E35555"/>
<path d="M125.664 115.377C127.283 115.377 128.538 114.944 129.427 114.077C130.317 113.188 130.75 111.956 130.728 110.382H141.54C141.54 114.442 140.08 117.773 137.16 120.373C134.263 122.973 130.522 124.273 125.937 124.273C120.554 124.273 116.311 122.586 113.209 119.21C110.107 115.834 108.556 111.158 108.556 105.181V104.702C108.556 100.961 109.24 97.6652 110.609 94.814C112 91.9399 113.996 89.7387 116.597 88.2104C119.197 86.6593 122.276 85.8837 125.835 85.8837C130.648 85.8837 134.468 87.2181 137.297 89.8869C140.125 92.5557 141.54 96.1712 141.54 100.733H130.728C130.728 98.8172 130.26 97.3459 129.325 96.3194C128.389 95.293 127.135 94.7797 125.561 94.7797C122.573 94.7797 120.828 96.6844 120.326 100.494C120.166 101.703 120.087 103.368 120.087 105.489C120.087 109.207 120.531 111.785 121.421 113.222C122.311 114.659 123.725 115.377 125.664 115.377Z" fill="#E35555"/>
<path d="M157.689 90.537C160.153 87.4348 163.301 85.8837 167.133 85.8837C171.216 85.8837 174.295 87.0927 176.371 89.5106C178.447 91.9285 179.507 95.4983 179.553 100.22V123.589H167.988V100.494C167.988 98.532 167.589 97.095 166.791 96.1826C165.992 95.2474 164.635 94.7797 162.719 94.7797C160.347 94.7797 158.67 95.5325 157.689 97.038V123.589H146.159V71.0342H157.689V90.537Z" fill="#E35555"/>
<path d="M208.499 106.584H187.936V97.6538H208.499V106.584Z" fill="#E35555"/>
<path d="M251.884 105.352C251.884 111.101 250.584 115.697 247.984 119.141C245.406 122.563 241.916 124.273 237.514 124.273C234.115 124.273 231.321 123.03 229.131 120.544V137.823H217.601V86.568H228.378L228.721 89.9896C230.933 87.2523 233.842 85.8837 237.446 85.8837C242.008 85.8837 245.555 87.5717 248.087 90.9476C250.618 94.3007 251.884 98.9198 251.884 104.805V105.352ZM240.354 104.634C240.354 98.0644 238.438 94.7797 234.606 94.7797C231.868 94.7797 230.044 95.7606 229.131 97.7223V112.298C230.135 114.351 231.982 115.377 234.674 115.377C238.347 115.377 240.24 112.207 240.354 105.866V104.634Z" fill="#2AAB85"/>
<path d="M277.854 123.589C277.443 122.836 277.078 121.73 276.759 120.27C274.638 122.939 271.672 124.273 267.863 124.273C264.373 124.273 261.408 123.224 258.967 121.126C256.526 119.004 255.306 116.347 255.306 113.153C255.306 109.139 256.789 106.105 259.754 104.052C262.719 101.999 267.031 100.973 272.687 100.973H276.246V99.0225C276.246 95.6237 274.775 93.9244 271.832 93.9244C269.095 93.9244 267.726 95.2702 267.726 97.9618H256.196C256.196 94.3806 257.713 91.4722 260.746 89.2368C263.803 87.0014 267.692 85.8837 272.414 85.8837C277.135 85.8837 280.865 87.0356 283.602 89.3395C286.339 91.6433 287.742 94.8026 287.811 98.8172V115.206C287.856 118.605 288.381 121.205 289.385 123.007V123.589H277.854ZM270.635 116.062C272.072 116.062 273.258 115.754 274.193 115.138C275.151 114.522 275.835 113.826 276.246 113.051V107.132H272.893C268.878 107.132 266.871 108.934 266.871 112.538C266.871 113.587 267.224 114.442 267.932 115.104C268.639 115.742 269.54 116.062 270.635 116.062Z" fill="#2AAB85"/>
<path d="M309.88 115.377C311.499 115.377 312.754 114.944 313.643 114.077C314.533 113.188 314.966 111.956 314.944 110.382H325.756C325.756 114.442 324.296 117.773 321.376 120.373C318.479 122.973 314.738 124.273 310.153 124.273C304.77 124.273 300.527 122.586 297.425 119.21C294.323 115.834 292.772 111.158 292.772 105.181V104.702C292.772 100.961 293.456 97.6652 294.825 94.814C296.216 91.9399 298.212 89.7387 300.813 88.2104C303.413 86.6593 306.492 85.8837 310.051 85.8837C314.864 85.8837 318.684 87.2181 321.513 89.8869C324.341 92.5557 325.756 96.1712 325.756 100.733H314.944C314.944 98.8172 314.476 97.3459 313.541 96.3194C312.606 95.293 311.351 94.7797 309.777 94.7797C306.789 94.7797 305.044 96.6844 304.542 100.494C304.382 101.703 304.303 103.368 304.303 105.489C304.303 109.207 304.747 111.785 305.637 113.222C306.527 114.659 307.941 115.377 309.88 115.377Z" fill="#2AAB85"/>
<path d="M345.498 109.8L342.248 113.051V123.589H330.717V71H342.248V98.9198L343.411 97.3801L352.102 86.568H365.925L352.957 101.794L366.78 123.589H353.573L345.498 109.8Z" fill="#2AAB85"/>
<path d="M389.807 123.589C389.396 122.836 389.031 121.73 388.712 120.27C386.591 122.939 383.625 124.273 379.816 124.273C376.326 124.273 373.361 123.224 370.92 121.126C368.479 119.004 367.259 116.347 367.259 113.153C367.259 109.139 368.742 106.105 371.707 104.052C374.672 101.999 378.983 100.973 384.64 100.973H388.199V99.0225C388.199 95.6237 386.728 93.9244 383.785 93.9244C381.048 93.9244 379.679 95.2702 379.679 97.9618H368.149C368.149 94.3806 369.665 91.4722 372.699 89.2368C375.756 87.0014 379.645 85.8837 384.367 85.8837C389.088 85.8837 392.818 87.0356 395.555 89.3395C398.292 91.6433 399.695 94.8026 399.764 98.8172V115.206C399.809 118.605 400.334 121.205 401.338 123.007V123.589H389.807ZM382.588 116.062C384.025 116.062 385.211 115.754 386.146 115.138C387.104 114.522 387.788 113.826 388.199 113.051V107.132H384.846C380.831 107.132 378.824 108.934 378.824 112.538C378.824 113.587 379.177 114.442 379.884 115.104C380.592 115.742 381.493 116.062 382.588 116.062Z" fill="#2AAB85"/>
<path d="M404.828 104.805C404.828 101.064 405.443 97.7565 406.675 94.8824C407.907 92.0083 409.675 89.7957 411.979 88.2446C414.282 86.6707 416.963 85.8837 420.019 85.8837C423.874 85.8837 426.885 87.1839 429.052 89.7843L429.463 86.568H439.933V122.186C439.933 125.448 439.168 128.277 437.64 130.672C436.135 133.09 433.945 134.937 431.071 136.215C428.197 137.515 424.866 138.165 421.08 138.165C418.365 138.165 415.731 137.652 413.176 136.625C410.644 135.599 408.705 134.264 407.36 132.622L412.184 125.847C414.328 128.379 417.157 129.645 420.669 129.645C425.779 129.645 428.334 127.022 428.334 121.776V120.612C426.121 123.053 423.327 124.273 419.951 124.273C415.434 124.273 411.785 122.551 409.002 119.107C406.219 115.64 404.828 111.009 404.828 105.215V104.805ZM416.392 105.523C416.392 108.557 416.963 110.964 418.103 112.743C419.244 114.499 420.84 115.377 422.893 115.377C425.38 115.377 427.193 114.545 428.334 112.88V97.3117C427.216 95.6237 425.425 94.7797 422.962 94.7797C420.909 94.7797 419.301 95.7036 418.137 97.5512C416.974 99.376 416.392 102.033 416.392 105.523Z" fill="#2AAB85"/>
<path d="M464.397 124.273C458.717 124.273 454.121 122.586 450.608 119.21C447.095 115.811 445.339 111.397 445.339 105.968V105.01C445.339 101.224 446.034 97.8819 447.426 94.985C448.84 92.0881 450.893 89.8527 453.585 88.2788C456.276 86.6821 459.47 85.8837 463.165 85.8837C468.366 85.8837 472.472 87.5033 475.482 90.7423C478.493 93.9586 479.999 98.4522 479.999 104.223V108.705H457.075C457.485 110.781 458.386 112.412 459.778 113.598C461.169 114.784 462.971 115.377 465.184 115.377C468.833 115.377 471.685 114.1 473.737 111.545L479.007 117.773C477.57 119.757 475.528 121.342 472.882 122.528C470.259 123.692 467.43 124.273 464.397 124.273ZM463.096 94.7797C459.721 94.7797 457.713 97.0152 457.075 101.486H468.708V100.596C468.753 98.7487 468.286 97.3231 467.305 96.3194C466.324 95.293 464.921 94.7797 463.096 94.7797Z" fill="#2AAB85"/>
<path d="M21.001 150.902L9.00098 150.902V152.902H21.001V150.902Z" fill="#E35555"/>
<path d="M38.0007 150.902L26.0007 150.902V152.902H38.0007V150.902Z" fill="#E35555"/>
<path d="M55.0007 150.902L43.0006 150.902V152.902H55.0007V150.902Z" fill="#E35555"/>
<path d="M72.0007 150.902L60.0006 150.902V152.902H72.0007V150.902Z" fill="#E35555"/>
<path d="M89.0006 150.902L77.0006 150.902V152.902H89.0006V150.902Z" fill="#E35555"/>
<path d="M106.001 150.902L94.0006 150.902V152.902H106.001V150.902Z" fill="#E35555"/>
<path d="M123.001 150.902L111.001 150.902V152.902H123.001V150.902Z" fill="#E35555"/>
<path d="M140.001 150.902L128.001 150.902V152.902H140.001V150.902Z" fill="#E35555"/>
<path d="M157.001 150.902L145.001 150.902V152.902H157.001V150.902Z" fill="#E35555"/>
<path d="M174.001 150.902L162.001 150.902V152.902H174.001V150.902Z" fill="#E35555"/>
<path d="M191.001 150.902L179.001 150.902V152.902H191.001V150.902Z" fill="#E35555"/>
<path d="M208.001 150.902L196.001 150.902V152.902H208.001V150.902Z" fill="#E35555"/>
<path d="M225.001 150.902L213.001 150.902V152.902H225.001V150.902Z" fill="#E35555"/>
<path d="M242.001 150.902L230.001 150.902V152.902H242.001V150.902Z" fill="#E35555"/>
<path d="M259.001 150.902L247.001 150.902V152.902H259.001V150.902Z" fill="#E35555"/>
<path d="M276.001 150.902L264.001 150.902V152.902H276.001V150.902Z" fill="#E35555"/>
<path d="M293.001 150.902L281.001 150.902V152.902H293.001V150.902Z" fill="#E35555"/>
<path d="M310.001 150.902L298.001 150.902V152.902H310.001V150.902Z" fill="#E35555"/>
<path d="M327.001 150.902L315.001 150.902V152.902H327.001V150.902Z" fill="#E35555"/>
<path d="M344.001 150.902L332.001 150.902V152.902H344.001V150.902Z" fill="#E35555"/>
<path d="M361.001 150.902L349.001 150.902V152.902H361.001V150.902Z" fill="#E35555"/>
<path d="M378.001 150.902L366.001 150.902V152.902H378.001V150.902Z" fill="#E35555"/>
<path d="M395.001 150.902L383.001 150.902V152.902H395.001V150.902Z" fill="#E35555"/>
<path d="M412.001 150.902L400.001 150.902V152.902H412.001V150.902Z" fill="#E35555"/>
<path d="M429.001 150.902L417.001 150.902V152.902H429.001V150.902Z" fill="#E35555"/>
<path d="M446.001 150.902L434.001 150.902V152.902H446.001V150.902Z" fill="#E35555"/>
<path d="M463.001 150.902L451.001 150.902V152.902H463.001V150.902Z" fill="#E35555"/>
<path d="M480.001 150.902L468.001 150.902V152.902H480.001V150.902Z" fill="#E35555"/>
<path d="M16.0305 164.902L21 164.902V166.902H16L16.0305 171.902H14V166.902H9V164.902L14 164.902V159.902L16.0305 159.902V164.902Z" fill="#2AAB85"/>
<path d="M33.0305 164.902L38 164.902V166.902H33L33.0305 171.902H31V166.902H26V164.902L31 164.902V159.902L33.0305 159.902V164.902Z" fill="#2AAB85"/>
<path d="M50.0304 164.902L55 164.902V166.902H50L50.0304 171.902H48V166.902H43V164.902L48 164.902V159.902L50.0304 159.902V164.902Z" fill="#2AAB85"/>
<path d="M67.0304 164.902L72 164.902V166.902H67L67.0304 171.902H65V166.902H60V164.902L65 164.902V159.902L67.0304 159.902V164.902Z" fill="#2AAB85"/>
<path d="M84.0304 164.902L89 164.902V166.902H84L84.0304 171.902H82V166.902H77V164.902L82 164.902V159.902L84.0304 159.902V164.902Z" fill="#2AAB85"/>
<path d="M101.03 164.902L106 164.902V166.902H101L101.03 171.902H99V166.902H94V164.902L99 164.902V159.902L101.03 159.902V164.902Z" fill="#2AAB85"/>
<path d="M118.03 164.902L123 164.902V166.902H118L118.03 171.902H116V166.902H111V164.902L116 164.902V159.902L118.03 159.902V164.902Z" fill="#2AAB85"/>
<path d="M135.03 164.902L140 164.902V166.902H135L135.03 171.902H133V166.902H128V164.902L133 164.902V159.902L135.03 159.902V164.902Z" fill="#2AAB85"/>
<path d="M152.03 164.902L157 164.902V166.902H152L152.03 171.902H150V166.902H145V164.902L150 164.902V159.902L152.03 159.902V164.902Z" fill="#2AAB85"/>
<path d="M169.03 164.902L174 164.902V166.902H169L169.03 171.902H167V166.902H162V164.902L167 164.902V159.902L169.03 159.902V164.902Z" fill="#2AAB85"/>
<path d="M186.03 164.902L191 164.902V166.902H186L186.03 171.902H184V166.902H179V164.902L184 164.902V159.902L186.03 159.902V164.902Z" fill="#2AAB85"/>
<path d="M203.03 164.902L208 164.902V166.902H203L203.03 171.902H201V166.902H196V164.902L201 164.902V159.902L203.03 159.902V164.902Z" fill="#2AAB85"/>
<path d="M220.03 164.902L225 164.902V166.902H220L220.03 171.902H218V166.902H213V164.902L218 164.902V159.902L220.03 159.902V164.902Z" fill="#2AAB85"/>
<path d="M237.03 164.902L242 164.902V166.902H237L237.03 171.902H235V166.902H230V164.902L235 164.902V159.902L237.03 159.902V164.902Z" fill="#2AAB85"/>
<path d="M254.03 164.902L259 164.902V166.902H254L254.03 171.902H252V166.902H247V164.902L252 164.902V159.902L254.03 159.902V164.902Z" fill="#2AAB85"/>
<path d="M271.03 164.902L276 164.902V166.902H271L271.03 171.902H269V166.902H264V164.902L269 164.902V159.902L271.03 159.902V164.902Z" fill="#2AAB85"/>
<path d="M288.03 164.902L293 164.902V166.902H288L288.03 171.902H286V166.902H281V164.902L286 164.902V159.902L288.03 159.902V164.902Z" fill="#2AAB85"/>
<path d="M305.03 164.902L310 164.902V166.902H305L305.03 171.902H303V166.902H298V164.902L303 164.902V159.902L305.03 159.902V164.902Z" fill="#2AAB85"/>
<path d="M322.03 164.902L327 164.902V166.902H322L322.03 171.902H320V166.902H315V164.902L320 164.902V159.902L322.03 159.902V164.902Z" fill="#2AAB85"/>
<path d="M339.03 164.902L344 164.902V166.902H339L339.03 171.902H337V166.902H332V164.902L337 164.902V159.902L339.03 159.902V164.902Z" fill="#2AAB85"/>
<path d="M356.03 164.902L361 164.902V166.902H356L356.03 171.902H354V166.902H349V164.902L354 164.902V159.902L356.03 159.902V164.902Z" fill="#2AAB85"/>
<path d="M373.03 164.902L378 164.902V166.902H373L373.03 171.902H371V166.902H366V164.902L371 164.902V159.902L373.03 159.902V164.902Z" fill="#2AAB85"/>
<path d="M390.03 164.902L395 164.902V166.902H390L390.03 171.902H388V166.902H383V164.902L388 164.902V159.902L390.03 159.902V164.902Z" fill="#2AAB85"/>
<path d="M407.03 164.902L412 164.902V166.902H407L407.03 171.902H405V166.902H400V164.902L405 164.902V159.902L407.03 159.902V164.902Z" fill="#2AAB85"/>
<path d="M424.03 164.902L429 164.902V166.902H424L424.03 171.902H422V166.902H417V164.902L422 164.902V159.902L424.03 159.902V164.902Z" fill="#2AAB85"/>
<path d="M441.03 164.902L446 164.902V166.902H441L441.03 171.902H439V166.902H434V164.902L439 164.902V159.902L441.03 159.902V164.902Z" fill="#2AAB85"/>
<path d="M458.03 164.902L463 164.902V166.902H458L458.03 171.902H456V166.902H451V164.902L456 164.902V159.902L458.03 159.902V164.902Z" fill="#2AAB85"/>
<path d="M475.03 164.902L480 164.902V166.902H475L475.03 171.902H473V166.902H468V164.902L473 164.902V159.902L475.03 159.902V164.902Z" fill="#2AAB85"/>
</svg>
